:FULLY-SPECIFIED
:FORCE-ALL-JOINTS-BE-3DOF
:DEGREES
951
root 1.15561 15.2773 32.7329 8.29903 -3.69749 5.84854
lfemur 8.24184 1.13703 4.65154
ltibia 0.233159 -0 0
lfoot -34.1807 -16.8415 0.150227
ltoes -38.0126 0 0
rfemur -37.6716 -19.014 -9.14152
rtibia 57.0127 -0 0
rfoot -24.7958 5.30352 0.048166
rtoes -49.8217 0 0
lowerback -2.72071 -0.471278 0.854639
upperback -1.8065 -0.655342 -8.31304
thorax -0.429031 -0.379113 -9.16762
lowerneck -7.95135 0.582728 5.29117
upperneck 1.18465 0.233306 3.97779
head 1.70574 0.228385 0.356592
lclavicle -4.13184e-15 -1.96891e-14 0
lhumerus -71.9621 -41.0175 123.823
lradius 64.1107 -0 0
lwrist 30.0916 0 0
lhand 47.2161 29.2665 -0.00373192
lfingers 7.12502 0 0
lthumb 71.6379 41.6996 -0.0052292
rclavicle -4.13184e-15 -1.96891e-14 0
rhumerus 4.5343 -44.1295 -2.01609
rradius 32.3122 -0 0
rwrist -19.7557 0 0
rhand -47.9777 -59.001 -0.5154
rfingers 7.12502 0 0
rthumb -16.5304 -90.0959 -0.536243
952
root 1.14859 15.2682 32.7256 8.21145 -3.71805 5.7679
lfemur 8.20944 1.19517 4.60344
ltibia 0.156803 -0 0
lfoot -33.9489 -16.2987 0.209989
ltoes -37.9715 0 0
rfemur -37.2978 -18.8935 -8.96223
rtibia 56.4812 -0 0
rfoot -24.676 5.35291 0.0701806
rtoes -49.2128 0 0
lowerback -2.67367 -0.464513 0.876689
upperback -1.783 -0.647244 -8.19664
thorax -0.430297 -0.374846 -9.05884
lowerneck -7.83665 0.602046 5.26057
upperneck 1.13703 0.26529 3.897
head 1.66988 0.241892 0.337472
lclavicle -2.21499e-15 -1.56756e-14 0
lhumerus -71.061 -41.2824 123.183
lradius 63.4387 -0 0
lwrist 29.7739 0 0
lhand 46.6281 28.8612 -0.00471553
lfingers 7.12502 0 0
lthumb 70.9365 41.2144 -0.00473245
rclavicle -2.21499e-15 -1.56756e-14 0
rhumerus 4.54934 -44.5498 -1.51961
rradius 31.0378 -0 0
rwrist -19.6002 0 0
rhand -47.9779 -58.6901 -0.726116
rfingers 7.12502 0 0
rthumb -16.8626 -89.7656 -0.758491
953
root 1.14158 15.259 32.7182 8.04239 -3.69445 5.62904
lfemur 8.08989 1.23775 4.50294
ltibia 0.0728344 -0 0
lfoot -33.4002 -15.5641 0.275183
ltoes -37.6063 0 0
rfemur -36.5455 -18.5896 -8.68732
rtibia 55.4611 -0 0
rfoot -24.3163 5.34529 0.0943738
rtoes -48.1618 0 0
lowerback -2.6001 -0.452109 0.892415
upperback -1.74222 -0.631492 -7.99709
thorax -0.427608 -0.366299 -8.85988
lowerneck -7.64132 0.614193 5.17302
upperneck 1.07943 0.293333 3.77231
head 1.61716 0.25234 0.314148
lclavicle -2.98133e-16 -1.1662e-14 0
lhumerus -69.4002 -41.739 121.942
lradius 62.2503 -0 0
lwrist 29.1679 0 0
lhand 45.6179 28.1623 -0.00573404
lfingers 7.12502 0 0
lthumb 69.6991 40.3285 -0.0039365
rclavicle -2.98133e-16 -1.1662e-14 0
rhumerus 4.49567 -44.7078 -0.972078
rradius 29.3645 -0 0
rwrist -19.2679 0 0
rhand -47.6392 -57.934 -0.963739
rfingers 7.12502 0 0
rthumb -17.1077 -88.9404 -1.01682
954
root 1.13456 15.2499 32.7109 7.812 -3.63689 5.44681
lfemur 7.90422 1.26751 4.3634
ltibia -0.0153646 0 0
lfoot -32.6059 -14.6917 0.343756
ltoes -36.9862 0 0
rfemur -35.5009 -18.145 -8.34231
rtibia 54.0472 -0 0
rfoot -23.7723 5.29306 0.119869
rtoes -46.7606 0 0
lowerback -2.50693 -0.435531 0.902775
upperback -1.68848 -0.610029 -7.7356
thorax -0.421806 -0.354546 -8.59331
lowerneck -7.38609 0.620575 5.04252
upperneck 1.01499 0.317875 3.6155
head 1.55216 0.260245 0.287956
lclavicle 1.61872e-15 -7.64844e-15 0
lhumerus -67.1171 -42.3551 120.122
lradius 60.6378 -0 0
lwrist 28.3412 0 0
lhand 44.2747 27.2406 -0.00676544
lfingers 7.12502 0 0
lthumb 68.0123 39.1311 -0.00292651
rclavicle 1.61872e-15 -7.64844e-15 0
rhumerus 4.38187 -44.6532 -0.39875
rradius 27.4011 -0 0
rwrist -18.8003 0 0
rhand -47.0278 -56.8157 -1.22395
rfingers 7.12502 0 0
rthumb -17.2758 -87.6845 -1.31062
955
root 1.12754 15.2407 32.7035 7.54037 -3.5558 5.23588
lfemur 7.67357 1.28749 4.19811
ltibia -0.10476 0 0
lfoot -31.6382 -13.7341 0.413818
ltoes -36.1812 0 0
rfemur -34.2515 -17.603 -7.95226
rtibia 52.3373 -0 0
rfoot -23.0999 5.20907 0.145884
rtoes -45.1036 0 0
lowerback -2.40093 -0.416229 0.908857
upperback -1.62609 -0.584783 -7.43313
thorax -0.413755 -0.340656 -8.28156
lowerneck -7.09148 0.622706 4.88309
upperneck 0.946661 0.339507 3.43818
head 1.47934 0.266198 0.260158
lclavicle 3.53557e-15 -3.63489e-15 0
lhumerus -64.3595 -43.0926 117.734
lradius 58.6978 -0 0
lwrist 27.3618 0 0
lhand 42.6906 26.1671 -0.00779018
lfingers 7.12502 0 0
lthumb 65.9674 37.7128 -0.00178541
rclavicle 3.53557e-15 -3.63489e-15 0
rhumerus 4.21828 -44.4364 0.177807
rradius 25.2568 -0 0
rwrist -18.2389 0 0
rhand -46.2107 -55.4201 -1.50165
rfingers 7.12502 0 0
rthumb -17.3793 -86.0612 -1.63798
